<?xml version="1.0" encoding="utf-8"?>
<!-- Generator: Adobe Illustrator 25.3.0, SVG Export Plug-In . SVG Version: 6.00 Build 0)  -->
<svg version="1.1" id="Layer_1" xmlns="http://www.w3.org/2000/svg" xmlns:xlink="http://www.w3.org/1999/xlink" x="0px" y="0px"
	 viewBox="0 0 1600 900" style="enable-background:new 0 0 1600 900;" xml:space="preserve">
<style type="text/css">
	.st0{fill:url(#SVGID_1_);}
	.st1{fill:#FFFFFF;}
</style>
<linearGradient id="SVGID_1_" gradientUnits="userSpaceOnUse" x1="-35.3893" y1="538.121" x2="1967.3661" y2="538.121" gradientTransform="matrix(1.1416 0 0 1.1171 -264.8203 -144.6069)">
	<stop  offset="0" style="stop-color:#333333"/>
	<stop  offset="1" style="stop-color:#000000"/>
</linearGradient>
<rect x="-291.07" y="-173.01" class="st0" width="2286.38" height="1259.08"/>
<g>
	<g id="Layer_1_1_">
		<g>
			<path class="st1" d="M586.31,436.59v-70.49h11.52l1.18,10.03h0.93c1.59-2.57,3.45-4.73,5.56-6.43c2.11-1.7,4.48-2.98,7.1-3.91
				c2.62-0.87,5.45-1.34,8.49-1.34c4.37,0,8.18,0.87,11.47,2.68c3.24,1.8,5.76,4.78,7.46,9h0.93c1.59-2.52,3.5-4.63,5.61-6.38
				c2.16-1.75,4.58-3.04,7.31-3.96c2.73-0.87,5.66-1.34,8.8-1.34c4.22,0,7.92,0.72,11.11,2.21c3.19,1.49,5.76,3.91,7.61,7.36
				c1.85,3.45,2.83,8.03,2.83,13.74v48.77h-13.94v-46.25c0-2.68-0.31-4.89-0.93-6.64c-0.62-1.75-1.49-3.14-2.52-4.17
				c-1.08-1.03-2.37-1.75-3.91-2.21s-3.19-0.67-4.94-0.67c-2.93,0-5.61,0.77-7.92,2.37c-2.32,1.54-4.22,3.76-5.61,6.48
				c-1.44,2.78-2.16,6.02-2.16,9.78v41.26h-13.94v-46.25c0-2.68-0.31-4.89-0.93-6.64c-0.62-1.75-1.49-3.14-2.57-4.17
				s-2.37-1.75-3.91-2.21c-1.54-0.46-3.14-0.67-4.84-0.67c-2.93,0-5.61,0.77-8.03,2.37c-2.42,1.54-4.32,3.76-5.76,6.48
				c-1.44,2.78-2.16,6.02-2.16,9.78v41.26h-13.84V436.59z"/>
			<path class="st1" d="M727.59,438.24c-4.94,0-9.26-0.51-13.02-1.59c-3.76-1.08-6.89-2.57-9.36-4.42
				c-2.52-1.85-4.42-4.12-5.71-6.79c-1.29-2.62-1.96-5.56-1.96-8.8c0-0.46,0-0.82,0.05-1.18c0.05-0.36,0.05-0.67,0.05-0.93h13.79
				c0,0.26,0,0.51,0,0.72c0,0.21,0,0.46,0,0.72c0,2.78,0.77,4.99,2.26,6.64c1.49,1.65,3.55,2.83,6.12,3.5
				c2.57,0.67,5.35,1.03,8.39,1.03c2.68,0,5.14-0.31,7.46-1.03c2.32-0.72,4.17-1.7,5.61-3.04c1.49-1.34,2.21-3.04,2.21-5.09
				c0-2.68-0.93-4.73-2.83-6.17s-4.32-2.57-7.36-3.4s-6.23-1.75-9.52-2.73c-2.93-0.82-5.87-1.7-8.8-2.62
				c-2.88-0.93-5.51-2.16-7.82-3.7c-2.32-1.49-4.22-3.45-5.61-5.76c-1.44-2.32-2.16-5.25-2.16-8.69c0-3.29,0.72-6.23,2.16-8.69
				c1.44-2.52,3.4-4.58,5.97-6.28c2.57-1.7,5.56-2.98,9.11-3.91c3.55-0.87,7.41-1.34,11.58-1.34c4.37,0,8.28,0.46,11.68,1.39
				s6.28,2.26,8.64,3.96c2.37,1.7,4.17,3.76,5.45,6.12c1.23,2.37,1.85,4.89,1.85,7.56c0,0.51,0,1.08-0.05,1.7
				c-0.05,0.57-0.05,0.98-0.05,1.13h-13.69v-1.18c0-1.8-0.51-3.4-1.49-4.84s-2.52-2.57-4.63-3.5c-2.11-0.87-4.89-1.34-8.39-1.34
				c-2.32,0-4.37,0.21-6.17,0.62s-3.24,0.98-4.42,1.7c-1.18,0.72-2.06,1.54-2.62,2.52c-0.57,0.98-0.87,2.11-0.87,3.34
				c0,2.06,0.72,3.65,2.21,4.73c1.49,1.13,3.4,2.06,5.81,2.83c2.42,0.77,4.99,1.59,7.77,2.47c3.19,0.87,6.48,1.8,9.78,2.73
				c3.29,0.93,6.38,2.11,9.16,3.55c2.83,1.44,5.09,3.4,6.84,5.92c1.75,2.52,2.62,5.87,2.62,10.03c0,3.86-0.77,7.2-2.26,10.03
				c-1.54,2.88-3.65,5.14-6.38,6.89s-5.92,3.04-9.57,3.91C735.82,437.78,731.86,438.24,727.59,438.24z"/>
			<path class="st1" d="M771.78,436.59v-70.49h11.52l1.18,10.03h0.93c1.59-2.57,3.45-4.73,5.56-6.43c2.11-1.7,4.48-2.98,7.1-3.91
				c2.62-0.87,5.45-1.34,8.49-1.34c4.37,0,8.18,0.87,11.47,2.68c3.24,1.8,5.76,4.78,7.46,9h0.93c1.59-2.52,3.5-4.63,5.61-6.38
				c2.16-1.75,4.58-3.04,7.31-3.96c2.73-0.87,5.66-1.34,8.8-1.34c4.22,0,7.92,0.72,11.11,2.21s5.76,3.91,7.61,7.36
				c1.85,3.45,2.83,8.03,2.83,13.74v48.77h-13.94v-46.25c0-2.68-0.31-4.89-0.93-6.64c-0.62-1.75-1.49-3.14-2.52-4.17
				c-1.08-1.03-2.37-1.75-3.91-2.21s-3.19-0.67-4.94-0.67c-2.93,0-5.61,0.77-7.92,2.37c-2.32,1.54-4.22,3.76-5.61,6.48
				c-1.44,2.78-2.16,6.02-2.16,9.78v41.26h-13.94v-46.25c0-2.68-0.31-4.89-0.93-6.64c-0.62-1.75-1.49-3.14-2.57-4.17
				c-1.08-1.03-2.37-1.75-3.91-2.21c-1.54-0.46-3.14-0.67-4.84-0.67c-2.93,0-5.61,0.77-8.03,2.37c-2.42,1.54-4.32,3.76-5.76,6.48
				c-1.44,2.78-2.16,6.02-2.16,9.78v41.26h-13.84V436.59z"/>
			<path class="st1" d="M904.62,438.24c-4.01,0-7.15-0.77-9.47-2.37c-2.26-1.54-3.91-3.55-4.84-6.02c-0.93-2.47-1.39-5.09-1.39-7.82
				v-44.35h-8.85v-11.52h9.11l2.57-19.71h11.11v19.71h12.71v11.52h-12.71v42.75c0,2.06,0.46,3.6,1.34,4.68
				c0.87,1.08,2.37,1.59,4.42,1.59h6.95v9.36c-0.87,0.36-2.01,0.67-3.29,1.03c-1.29,0.31-2.62,0.57-3.96,0.82
				C907.04,438.09,905.75,438.24,904.62,438.24z"/>
			<path class="st1" d="M957.15,438.24c-7.25,0-13.27-1.34-18.16-3.96c-4.89-2.62-8.54-6.69-11.06-12.14
				c-2.52-5.45-3.76-12.4-3.76-20.79c0-8.49,1.23-15.43,3.76-20.84c2.52-5.4,6.23-9.42,11.11-12.04c4.94-2.62,11.06-3.96,18.37-3.96
				c6.69,0,12.3,1.29,16.82,3.81c4.53,2.52,7.92,6.43,10.24,11.58c2.32,5.2,3.5,11.73,3.5,19.55v5.35h-49.44
				c0.15,4.99,0.93,9.16,2.26,12.55s3.4,5.81,6.12,7.36c2.73,1.54,6.17,2.37,10.39,2.37c2.57,0,4.94-0.31,7-1.03
				c2.06-0.67,3.81-1.65,5.25-2.93c1.44-1.29,2.57-2.88,3.34-4.68c0.77-1.8,1.18-3.91,1.18-6.23h13.69c0,4.22-0.72,7.92-2.16,11.11
				c-1.44,3.24-3.5,5.92-6.23,8.13c-2.73,2.21-5.97,3.86-9.72,5.04C965.85,437.62,961.73,438.24,957.15,438.24z M938.78,394.66
				h34.57c0-3.5-0.36-6.43-1.13-8.8s-1.85-4.32-3.29-5.81c-1.44-1.49-3.14-2.62-5.09-3.29s-4.22-1.03-6.69-1.03
				c-3.76,0-6.95,0.67-9.57,2.01s-4.68,3.4-6.07,6.23C940.07,386.84,939.14,390.39,938.78,394.66z"/>
			<path class="st1" d="M1030.21,438.24c-7.05,0-12.97-1.34-17.7-3.96c-4.73-2.62-8.28-6.69-10.65-12.14
				c-2.37-5.45-3.55-12.4-3.55-20.79s1.18-15.28,3.6-20.68c2.42-5.4,6.02-9.47,10.8-12.14s10.65-4.01,17.65-4.01
				c4.84,0,9,0.62,12.61,1.8c3.55,1.18,6.64,2.98,9.11,5.35c2.47,2.37,4.37,5.3,5.56,8.8c1.18,3.5,1.8,7.46,1.8,11.94h-14.1
				c0-3.76-0.51-6.84-1.59-9.26s-2.73-4.22-4.94-5.45c-2.21-1.18-5.14-1.8-8.69-1.8c-3.76,0-6.95,0.87-9.52,2.62
				c-2.57,1.75-4.58,4.37-5.92,7.92c-1.34,3.55-2.01,8.18-2.01,13.89v2.26c0,5.45,0.67,9.98,1.96,13.58
				c1.29,3.6,3.24,6.28,5.92,8.03c2.62,1.75,6.02,2.62,10.14,2.62c3.55,0,6.43-0.67,8.64-1.96c2.21-1.29,3.86-3.19,4.94-5.61
				c1.13-2.47,1.7-5.45,1.7-8.9h13.53c0,4.22-0.62,7.97-1.8,11.37s-3.04,6.33-5.51,8.8s-5.51,4.37-9.16,5.71
				C1039.27,437.57,1035.05,438.24,1030.21,438.24z"/>
			<path class="st1" d="M1073.48,436.59v-96.88h13.94v34.83h0.93c1.7-2.16,3.6-3.96,5.76-5.45c2.16-1.49,4.58-2.62,7.25-3.4
				c2.68-0.82,5.61-1.18,8.85-1.18c4.48,0,8.39,0.77,11.78,2.37c3.4,1.54,6.07,4.06,7.97,7.56s2.88,8.18,2.88,14.1v48.11h-13.94v-46
				c0-2.68-0.36-4.94-1.03-6.69c-0.67-1.8-1.65-3.19-2.88-4.27c-1.23-1.08-2.73-1.85-4.42-2.26c-1.7-0.46-3.6-0.67-5.61-0.67
				c-3.19,0-6.12,0.77-8.8,2.26c-2.62,1.54-4.73,3.65-6.38,6.43c-1.59,2.78-2.42,6.07-2.42,9.93v41.26h-13.89V436.59z"/>
			<path class="st1" d="M1141.29,455.37v-10.03h66.37v10.03H1141.29z"/>
		</g>
	</g>
	<g id="Layer_2_1_">
		<g>
			<path class="st1" d="M447.24,460.83h43.83l49.55-29.07v-24.85L447.24,460.83z"/>
			<path class="st1" d="M442.5,348.25v111.28l96.36-55.62L442.5,348.25z M466.22,389.41l25.16,14.51l-25.16,14.51V389.41z"/>
			<path class="st1" d="M515.67,361.22l-49.91-28.4l-21.56,12.45l93.38,53.92L515.67,361.22z"/>
			<path class="st1" d="M417.5,447.14l21.56,12.45V351.75l-21.92,37.97L417.5,447.14z"/>
			<path class="st1" d="M490.92,318.31l-21.71,12.5l43.01,24.44L490.92,318.31z"/>
			<path class="st1" d="M392.34,432.63l21.71,12.5l-0.36-49.49L392.34,432.63z"/>
			<path class="st1" d="M540.62,460.83v-25l-42.7,25.06h42.7V460.83z"/>
			<path class="st1" d="M469.52,395.12v17.6l15.28-8.8L469.52,395.12z"/>
		</g>
	</g>
</g>
<g>
</g>
<g>
</g>
<g>
</g>
<g>
</g>
<g>
</g>
<g>
</g>
<g>
</g>
<g>
</g>
<g>
</g>
<g>
</g>
<g>
</g>
</svg>
