<svg xmlns="http://www.w3.org/2000/svg" viewBox="0 0 158.47 33.57"><g id="Layer_1" data-name="Layer 1"><text transform="translate(35.95 22.99)" style="font-size:26.05112075805664px;fill:#231f20;font-family:Archivo-Medium, Archivo;font-weight:500">msmtech_</text></g><g id="Layer_2" data-name="Layer 2"><path d="M14.2,36.13h8.52l9.63-5.65V25.65Z" transform="translate(-3.53 -8.43)" style="fill:#231f20"/><path d="M13.28,14.25V35.88L32,25.07Zm4.61,8,4.89,2.83-4.89,2.82Z" transform="translate(-3.53 -8.43)" style="fill:#231f20"/><path d="M27.5,16.76l-9.7-5.51-4.19,2.42L31.77,24.15Z" transform="translate(-3.53 -8.43)" style="fill:#231f20"/><path d="M8.42,33.46l4.19,2.42v-21L8.34,22.3Z" transform="translate(-3.53 -8.43)" style="fill:#231f20"/><path d="M22.69,8.43l-4.21,2.43,8.36,4.75Z" transform="translate(-3.53 -8.43)" style="fill:#231f20"/><path d="M3.53,30.64l4.21,2.43-.06-9.61Z" transform="translate(-3.53 -8.43)" style="fill:#231f20"/><path d="M32.35,36.13V31.26l-8.3,4.87Z" transform="translate(-3.53 -8.43)" style="fill:#231f20"/><path d="M18.53,23.35v3.43l3-1.72Z" transform="translate(-3.53 -8.43)" style="fill:#231f20"/></g></svg>