<?xml version="1.0" encoding="utf-8"?>
<!-- Generator: Adobe Illustrator 25.3.0, SVG Export Plug-In . SVG Version: 6.00 Build 0)  -->
<svg version="1.1" xmlns="http://www.w3.org/2000/svg" xmlns:xlink="http://www.w3.org/1999/xlink" x="0px" y="0px"
	 viewBox="0 0 164 31.79" style="enable-background:new 0 0 164 31.79;" xml:space="preserve">
<style type="text/css">
	.st0{display:none;}
	.st1{display:inline;}
	.st2{fill:#FFFFFF;}
</style>
<g id="Layer_3" class="st0">
	<rect y="-0.01" class="st1" width="164" height="31.8"/>
</g>
<g id="Layer_1">
	<g>
		<path class="st2" d="M41.23,25.25v-13.7h2.24l0.23,1.95h0.18c0.31-0.5,0.67-0.92,1.08-1.25c0.41-0.33,0.87-0.58,1.38-0.76
			c0.51-0.17,1.06-0.26,1.65-0.26c0.85,0,1.59,0.17,2.23,0.52c0.63,0.35,1.12,0.93,1.45,1.75h0.18c0.31-0.49,0.68-0.9,1.09-1.24
			c0.42-0.34,0.89-0.59,1.42-0.77c0.53-0.17,1.1-0.26,1.71-0.26c0.82,0,1.54,0.14,2.16,0.43c0.62,0.29,1.12,0.76,1.48,1.43
			c0.36,0.67,0.55,1.56,0.55,2.67v9.48h-2.71v-8.99c0-0.52-0.06-0.95-0.18-1.29c-0.12-0.34-0.29-0.61-0.49-0.81
			c-0.21-0.2-0.46-0.34-0.76-0.43c-0.3-0.09-0.62-0.13-0.96-0.13c-0.57,0-1.09,0.15-1.54,0.46c-0.45,0.3-0.82,0.73-1.09,1.26
			c-0.28,0.54-0.42,1.17-0.42,1.9v8.02h-2.71v-8.99c0-0.52-0.06-0.95-0.18-1.29c-0.12-0.34-0.29-0.61-0.5-0.81
			c-0.21-0.2-0.46-0.34-0.76-0.43c-0.3-0.09-0.61-0.13-0.94-0.13c-0.57,0-1.09,0.15-1.56,0.46c-0.47,0.3-0.84,0.73-1.12,1.26
			c-0.28,0.54-0.42,1.17-0.42,1.9v8.02H41.23z"/>
		<path class="st2" d="M68.69,25.57c-0.96,0-1.8-0.1-2.53-0.31s-1.34-0.5-1.82-0.86c-0.49-0.36-0.86-0.8-1.11-1.32
			c-0.25-0.51-0.38-1.08-0.38-1.71c0-0.09,0-0.16,0.01-0.23c0.01-0.07,0.01-0.13,0.01-0.18h2.68c0,0.05,0,0.1,0,0.14
			c0,0.04,0,0.09,0,0.14c0,0.54,0.15,0.97,0.44,1.29c0.29,0.32,0.69,0.55,1.19,0.68c0.5,0.13,1.04,0.2,1.63,0.2
			c0.52,0,1-0.06,1.45-0.2s0.81-0.33,1.09-0.59c0.29-0.26,0.43-0.59,0.43-0.99c0-0.52-0.18-0.92-0.55-1.2s-0.84-0.5-1.43-0.66
			c-0.59-0.16-1.21-0.34-1.85-0.53c-0.57-0.16-1.14-0.33-1.71-0.51c-0.56-0.18-1.07-0.42-1.52-0.72c-0.45-0.29-0.82-0.67-1.09-1.12
			c-0.28-0.45-0.42-1.02-0.42-1.69c0-0.64,0.14-1.21,0.42-1.69c0.28-0.49,0.66-0.89,1.16-1.22c0.5-0.33,1.08-0.58,1.77-0.76
			c0.69-0.17,1.44-0.26,2.25-0.26c0.85,0,1.61,0.09,2.27,0.27c0.66,0.18,1.22,0.44,1.68,0.77c0.46,0.33,0.81,0.73,1.06,1.19
			c0.24,0.46,0.36,0.95,0.36,1.47c0,0.1,0,0.21-0.01,0.33c-0.01,0.11-0.01,0.19-0.01,0.22H71.5v-0.23c0-0.35-0.1-0.66-0.29-0.94
			c-0.19-0.28-0.49-0.5-0.9-0.68c-0.41-0.17-0.95-0.26-1.63-0.26c-0.45,0-0.85,0.04-1.2,0.12c-0.35,0.08-0.63,0.19-0.86,0.33
			s-0.4,0.3-0.51,0.49c-0.11,0.19-0.17,0.41-0.17,0.65c0,0.4,0.14,0.71,0.43,0.92c0.29,0.22,0.66,0.4,1.13,0.55
			c0.47,0.15,0.97,0.31,1.51,0.48c0.62,0.17,1.26,0.35,1.9,0.53c0.64,0.18,1.24,0.41,1.78,0.69c0.55,0.28,0.99,0.66,1.33,1.15
			s0.51,1.14,0.51,1.95c0,0.75-0.15,1.4-0.44,1.95c-0.3,0.56-0.71,1-1.24,1.34c-0.53,0.34-1.15,0.59-1.86,0.76
			C70.29,25.48,69.52,25.57,68.69,25.57z"/>
		<path class="st2" d="M77.28,25.25v-13.7h2.24l0.23,1.95h0.18c0.31-0.5,0.67-0.92,1.08-1.25c0.41-0.33,0.87-0.58,1.38-0.76
			c0.51-0.17,1.06-0.26,1.65-0.26c0.85,0,1.59,0.17,2.23,0.52c0.63,0.35,1.12,0.93,1.45,1.75h0.18c0.31-0.49,0.68-0.9,1.09-1.24
			c0.42-0.34,0.89-0.59,1.42-0.77c0.53-0.17,1.1-0.26,1.71-0.26c0.82,0,1.54,0.14,2.16,0.43c0.62,0.29,1.12,0.76,1.48,1.43
			c0.36,0.67,0.55,1.56,0.55,2.67v9.48h-2.71v-8.99c0-0.52-0.06-0.95-0.18-1.29c-0.12-0.34-0.29-0.61-0.49-0.81
			c-0.21-0.2-0.46-0.34-0.76-0.43c-0.3-0.09-0.62-0.13-0.96-0.13c-0.57,0-1.09,0.15-1.54,0.46c-0.45,0.3-0.82,0.73-1.09,1.26
			c-0.28,0.54-0.42,1.17-0.42,1.9v8.02h-2.71v-8.99c0-0.52-0.06-0.95-0.18-1.29c-0.12-0.34-0.29-0.61-0.5-0.81
			c-0.21-0.2-0.46-0.34-0.76-0.43c-0.3-0.09-0.61-0.13-0.94-0.13c-0.57,0-1.09,0.15-1.56,0.46c-0.47,0.3-0.84,0.73-1.12,1.26
			c-0.28,0.54-0.42,1.17-0.42,1.9v8.02H77.28z"/>
		<path class="st2" d="M103.1,25.57c-0.78,0-1.39-0.15-1.84-0.46c-0.44-0.3-0.76-0.69-0.94-1.17c-0.18-0.48-0.27-0.99-0.27-1.52
			v-8.62h-1.72v-2.24h1.77l0.5-3.83h2.16v3.83h2.47v2.24h-2.47v8.31c0,0.4,0.09,0.7,0.26,0.91c0.17,0.21,0.46,0.31,0.86,0.31h1.35
			v1.82c-0.17,0.07-0.39,0.13-0.64,0.2c-0.25,0.06-0.51,0.11-0.77,0.16C103.57,25.54,103.32,25.57,103.1,25.57z"/>
		<path class="st2" d="M113.31,25.57c-1.41,0-2.58-0.26-3.53-0.77c-0.95-0.51-1.66-1.3-2.15-2.36c-0.49-1.06-0.73-2.41-0.73-4.04
			c0-1.65,0.24-3,0.73-4.05s1.21-1.83,2.16-2.34c0.96-0.51,2.15-0.77,3.57-0.77c1.3,0,2.39,0.25,3.27,0.74s1.54,1.25,1.99,2.25
			c0.45,1.01,0.68,2.28,0.68,3.8v1.04h-9.61c0.03,0.97,0.18,1.78,0.44,2.44s0.66,1.13,1.19,1.43c0.53,0.3,1.2,0.46,2.02,0.46
			c0.5,0,0.96-0.06,1.36-0.2c0.4-0.13,0.74-0.32,1.02-0.57c0.28-0.25,0.5-0.56,0.65-0.91s0.23-0.76,0.23-1.21h2.66
			c0,0.82-0.14,1.54-0.42,2.16c-0.28,0.63-0.68,1.15-1.21,1.58c-0.53,0.43-1.16,0.75-1.89,0.98C115,25.45,114.2,25.57,113.31,25.57z
			 M109.74,17.1h6.72c0-0.68-0.07-1.25-0.22-1.71c-0.15-0.46-0.36-0.84-0.64-1.13c-0.28-0.29-0.61-0.51-0.99-0.64
			c-0.38-0.13-0.82-0.2-1.3-0.2c-0.73,0-1.35,0.13-1.86,0.39c-0.51,0.26-0.91,0.66-1.18,1.21C109.99,15.58,109.81,16.27,109.74,17.1
			z"/>
		<path class="st2" d="M127.51,25.57c-1.37,0-2.52-0.26-3.44-0.77c-0.92-0.51-1.61-1.3-2.07-2.36c-0.46-1.06-0.69-2.41-0.69-4.04
			c0-1.63,0.23-2.97,0.7-4.02c0.47-1.05,1.17-1.84,2.1-2.36c0.93-0.52,2.07-0.78,3.43-0.78c0.94,0,1.75,0.12,2.45,0.35
			c0.69,0.23,1.29,0.58,1.77,1.04s0.85,1.03,1.08,1.71s0.35,1.45,0.35,2.32h-2.74c0-0.73-0.1-1.33-0.31-1.8
			c-0.21-0.47-0.53-0.82-0.96-1.06c-0.43-0.23-1-0.35-1.69-0.35c-0.73,0-1.35,0.17-1.85,0.51c-0.5,0.34-0.89,0.85-1.15,1.54
			c-0.26,0.69-0.39,1.59-0.39,2.7v0.44c0,1.06,0.13,1.94,0.38,2.64c0.25,0.7,0.63,1.22,1.15,1.56c0.51,0.34,1.17,0.51,1.97,0.51
			c0.69,0,1.25-0.13,1.68-0.38s0.75-0.62,0.96-1.09c0.22-0.48,0.33-1.06,0.33-1.73h2.63c0,0.82-0.12,1.55-0.35,2.21
			c-0.23,0.66-0.59,1.23-1.07,1.71c-0.48,0.48-1.07,0.85-1.78,1.11C129.27,25.44,128.45,25.57,127.51,25.57z"/>
		<path class="st2" d="M135.92,25.25V6.42h2.71v6.77h0.18c0.33-0.42,0.7-0.77,1.12-1.06c0.42-0.29,0.89-0.51,1.41-0.66
			c0.52-0.16,1.09-0.23,1.72-0.23c0.87,0,1.63,0.15,2.29,0.46c0.66,0.3,1.18,0.79,1.55,1.47c0.37,0.68,0.56,1.59,0.56,2.74v9.35
			h-2.71v-8.94c0-0.52-0.07-0.96-0.2-1.3c-0.13-0.35-0.32-0.62-0.56-0.83s-0.53-0.36-0.86-0.44c-0.33-0.09-0.7-0.13-1.09-0.13
			c-0.62,0-1.19,0.15-1.71,0.44c-0.51,0.3-0.92,0.71-1.24,1.25c-0.31,0.54-0.47,1.18-0.47,1.93v8.02H135.92z"/>
		<path class="st2" d="M149.1,28.9v-1.95H162v1.95H149.1z"/>
	</g>
</g>
<g id="Layer_2">
	<g>
		<path class="st2" d="M14.2,29.96h8.52l9.63-5.65v-4.83L14.2,29.96z"/>
		<path class="st2" d="M13.28,8.08v21.63L32.01,18.9L13.28,8.08z M17.89,16.08l4.89,2.82l-4.89,2.82V16.08z"/>
		<path class="st2" d="M27.5,10.6L17.8,5.08L13.61,7.5l18.15,10.48L27.5,10.6z"/>
		<path class="st2" d="M8.42,27.3l4.19,2.42V8.76l-4.26,7.38L8.42,27.3z"/>
		<path class="st2" d="M22.69,2.26l-4.22,2.43l8.36,4.75L22.69,2.26z"/>
		<path class="st2" d="M3.53,24.48l4.22,2.43l-0.07-9.62L3.53,24.48z"/>
		<path class="st2" d="M32.35,29.96V25.1l-8.3,4.87H32.35z"/>
		<path class="st2" d="M18.53,17.19v3.42l2.97-1.71L18.53,17.19z"/>
	</g>
	<g>
	</g>
	<g>
	</g>
	<g>
	</g>
	<g>
	</g>
	<g>
	</g>
	<g>
	</g>
</g>
</svg>
